<?xml version="1.0" encoding="UTF-8" standalone="no"?>
<!-- Created with Inkscape (http://www.inkscape.org/) -->

<svg
   width="57.320705mm"
   height="56.197567mm"
   viewBox="0 0 57.320705 56.197566"
   version="1.1"
   id="svg5"
   inkscape:version="1.2.2 (b0a8486541, 2022-12-01)"
   sodipodi:docname="favicon.svg"
   xmlns:inkscape="http://www.inkscape.org/namespaces/inkscape"
   xmlns:sodipodi="http://sodipodi.sourceforge.net/DTD/sodipodi-0.dtd"
   xmlns="http://www.w3.org/2000/svg"
   xmlns:svg="http://www.w3.org/2000/svg">
  <sodipodi:namedview
     id="namedview7"
     pagecolor="#ffffff"
     bordercolor="#000000"
     borderopacity="0.25"
     inkscape:showpageshadow="2"
     inkscape:pageopacity="0.0"
     inkscape:pagecheckerboard="0"
     inkscape:deskcolor="#d1d1d1"
     inkscape:document-units="mm"
     showgrid="false"
     inkscape:zoom="1.5981902"
     inkscape:cx="45.050957"
     inkscape:cy="97.923261"
     inkscape:window-width="1916"
     inkscape:window-height="1036"
     inkscape:window-x="0"
     inkscape:window-y="0"
     inkscape:window-maximized="1"
     inkscape:current-layer="layer1" />
  <defs
     id="defs2" />
  <g
     inkscape:label="Ebene 1"
     inkscape:groupmode="layer"
     id="layer1"
     transform="translate(-34.847864,-76.219758)">
    <path
       style="fill:#ffff1c;fill-opacity:1;stroke:#000000;stroke-width:1.658;stroke-linejoin:round"
       d="M 59.458976,87.651469 C 51.160723,89.237404 42.292098,84.93354 42.292098,84.93354 c 0,0 6.372247,12.297995 3.973172,17.0102 -2.399072,4.7122 -10.588629,8.12045 -10.588629,8.12045 0,0 14.430541,2.18109 16.903856,9.33327 1.52747,4.41704 2.127885,12.19098 2.127885,12.19098 0,0 7.458984,-8.13022 13.444103,-9.18307 9.768842,-1.71845 18.192173,3.35893 18.192173,3.35893 0,0 -7.365105,-7.82538 -6.080854,-12.81957 1.976799,-7.68738 11.075909,-16.04063 11.075909,-16.04063 0,0 -11.229811,0.669204 -15.666981,-3.470551 -4.437173,-4.139756 -2.620161,-16.385118 -2.620161,-16.385118 0,0 -5.295343,9.017104 -13.593595,10.603038 z"
       id="path1008"
       sodipodi:nodetypes="zcscscscscscz" />
    <path
       style="fill:#e11700;fill-opacity:1;stroke:#000000;stroke-width:1.658;stroke-linejoin:round"
       d="m 58.321778,99.39948 c -1.379969,-4.237956 -7.312189,-12.654997 -1.425763,-14.121671 8.191896,-2.04111 3.226422,2.773872 4.133279,6.187338 0.906857,3.413467 1.633381,6.222937 5.778845,6.890104 3.770919,0.606888 7.684462,1.00859 11.915096,1.776899 6.011135,1.09166 10.686854,-0.406174 11.157609,1.3755 0.855179,3.23661 -3.665744,5.1999 -3.665744,5.1999 0,0 -17.168172,-6.57064 -19.578939,-3.5678 -2.429526,3.0262 -3.872638,5.76278 -0.906352,11.12943 1.853531,3.35343 4.802174,5.75008 8.211983,6.10291 2.757266,0.2853 1.421974,3.27517 -0.944325,4.79096 -3.754847,2.40527 -6.455702,2.34217 -8.122921,-0.10346 -1.667219,-2.44563 1.282125,-3.9935 -0.858954,-7.3238 -1.76851,-2.75081 -2.655942,-5.75216 -7.002546,-6.39983 -4.346604,-0.64768 -6.204243,3.07624 -6.283239,5.5287 -0.079,2.45246 -3.56516,1.68908 -6.538056,-0.35248 -5.656755,-3.88465 -2.616849,-7.2898 -0.552464,-5.90872 2.064387,1.38108 8.590074,-1.18256 12.308866,-3.34398 3.718793,-2.16142 3.753594,-3.62204 2.373625,-7.86 z"
       id="path236"
       sodipodi:nodetypes="zssssscsssssscssssz" />
  </g>
</svg>
